<?xml version="1.0" encoding="UTF-8"?>
<!DOCTYPE svg PUBLIC "-//W3C//DTD SVG 1.1//EN" "http://www.w3.org/Graphics/SVG/1.1/DTD/svg11.dtd">
<svg xmlns="http://www.w3.org/2000/svg" version="1.1" width="500px" height="500px" style="shape-rendering:geometricPrecision; text-rendering:geometricPrecision; image-rendering:optimizeQuality; fill-rule:evenodd; clip-rule:evenodd" xmlns:xlink="http://www.w3.org/1999/xlink">
<g><path style="opacity:0.667" fill="#f041a2" d="M 226.5,-0.5 C 241.833,-0.5 257.167,-0.5 272.5,-0.5C 357.554,10.0879 422.387,51.7546 467,124.5C 484.806,156.412 495.639,190.412 499.5,226.5C 499.5,241.833 499.5,257.167 499.5,272.5C 488.912,357.554 447.245,422.387 374.5,467C 342.588,484.806 308.588,495.639 272.5,499.5C 257.167,499.5 241.833,499.5 226.5,499.5C 141.446,488.912 76.6126,447.245 32,374.5C 14.1944,342.588 3.36106,308.588 -0.5,272.5C -0.5,257.167 -0.5,241.833 -0.5,226.5C 10.0879,141.446 51.7546,76.6126 124.5,32C 156.412,14.1944 190.412,3.36106 226.5,-0.5 Z"/></g>
<g><path style="opacity:1" fill="#fdfefe" d="M 228.5,1.5 C 322.233,-2.91218 397.066,32.0878 453,106.5C 502.952,182.343 511.285,262.677 478,347.5C 445.875,417.622 393.041,464.455 319.5,488C 230.265,511.187 150.932,492.853 81.5,433C 10.829,363.186 -13.0043,279.686 10,182.5C 37.5,95 95,37.5 182.5,10C 197.764,5.99202 213.098,3.15868 228.5,1.5 Z"/></g>
<g><path style="opacity:1" fill="#165292" d="M 151.5,187.5 C 156.032,187.069 160.365,187.569 164.5,189C 163.833,190 163.167,191 162.5,192C 159.518,192.498 156.518,192.665 153.5,192.5C 153.343,193.873 153.51,195.207 154,196.5C 156.835,197.916 159.502,199.583 162,201.5C 163.569,206.625 162.069,210.459 157.5,213C 153.5,213.667 149.5,213.667 145.5,213C 144.692,212.692 144.025,212.192 143.5,211.5C 144.246,210.264 144.579,208.93 144.5,207.5C 148.382,208.637 152.216,208.637 156,207.5C 156.667,206.5 156.667,205.5 156,204.5C 145.513,200.858 144.013,195.191 151.5,187.5 Z"/></g>
<g><path style="opacity:1" fill="#0f4f90" d="M 127.5,187.5 C 134.508,187.334 141.508,187.5 148.5,188C 146.221,191.32 143.054,193.153 139,193.5C 137.83,200.176 136.664,206.842 135.5,213.5C 133.833,213.5 132.167,213.5 130.5,213.5C 130.634,206.698 131.634,200.031 133.5,193.5C 131.604,192.534 129.604,192.201 127.5,192.5C 127.5,190.833 127.5,189.167 127.5,187.5 Z"/></g>
<g><path style="opacity:1" fill="#0f5090" d="M 109.5,187.5 C 115.167,187.5 120.833,187.5 126.5,187.5C 126.579,188.93 126.246,190.264 125.5,191.5C 121.893,192.489 118.226,192.823 114.5,192.5C 114.5,194.167 114.5,195.833 114.5,197.5C 117.898,197.18 121.232,197.513 124.5,198.5C 123.754,199.736 123.421,201.07 123.5,202.5C 119.833,202.5 116.167,202.5 112.5,202.5C 112.167,204.5 111.833,206.5 111.5,208.5C 115.167,208.5 118.833,208.5 122.5,208.5C 122.5,210.167 122.5,211.833 122.5,213.5C 116.833,213.5 111.167,213.5 105.5,213.5C 106.188,204.728 107.521,196.061 109.5,187.5 Z"/></g>
<g><path style="opacity:1" fill="#165392" d="M 112.5,178.5 C 113.239,178.369 113.906,178.536 114.5,179C 104.643,184.521 98.1429,192.687 95,203.5C 93.7164,213.434 97.5498,220.601 106.5,225C 121.254,229.8 135.921,229.466 150.5,224C 156.956,221.439 162.956,218.439 168.5,215C 147.666,232.695 124.333,237.028 98.5,228C 86.0789,218.661 84.2455,207.495 93,194.5C 98.5269,187.79 105.027,182.456 112.5,178.5 Z"/></g>
<g><path style="opacity:1" fill="#5082b0" d="M 204.5,174.5 C 204.5,175.833 204.5,177.167 204.5,178.5C 209.833,178.5 215.167,178.5 220.5,178.5C 220.737,179.791 220.404,180.791 219.5,181.5C 214.604,179.554 209.271,178.887 203.5,179.5C 203.216,177.585 203.549,175.919 204.5,174.5 Z"/></g>
<g><path style="opacity:1" fill="#0c4e8f" d="M 361.5,170.5 C 357.068,190.33 353.401,210.33 350.5,230.5C 346.833,230.5 343.167,230.5 339.5,230.5C 343.039,210.807 346.705,191.14 350.5,171.5C 354.064,170.577 357.731,170.244 361.5,170.5 Z"/></g>
<g><path style="opacity:1" fill="#0a4e8f" d="M 309.5,170.5 C 320.679,170.172 331.679,170.505 342.5,171.5C 341.781,173.764 341.448,176.097 341.5,178.5C 333.826,178.334 326.159,178.5 318.5,179C 317.185,184.077 316.185,189.244 315.5,194.5C 322.5,194.5 329.5,194.5 336.5,194.5C 336.037,197.482 335.704,200.482 335.5,203.5C 328.167,203.5 320.833,203.5 313.5,203.5C 311.985,209.41 310.985,215.41 310.5,221.5C 318.528,221.169 326.528,221.502 334.5,222.5C 333.607,225.084 333.274,227.751 333.5,230.5C 321.833,230.5 310.167,230.5 298.5,230.5C 301.437,210.244 305.103,190.244 309.5,170.5 Z"/></g>
<g><path style="opacity:1" fill="#0c4e8f" d="M 205.5,170.5 C 220.206,169.85 234.539,170.517 248.5,172.5C 248.007,174.806 247.674,177.139 247.5,179.5C 241.833,179.5 236.167,179.5 230.5,179.5C 227.019,196.421 224.019,213.421 221.5,230.5C 217.833,230.5 214.167,230.5 210.5,230.5C 213.116,214.089 216.116,197.756 219.5,181.5C 220.404,180.791 220.737,179.791 220.5,178.5C 215.167,178.5 209.833,178.5 204.5,178.5C 204.5,177.167 204.5,175.833 204.5,174.5C 204.232,172.901 204.566,171.568 205.5,170.5 Z"/></g>
<g><path style="opacity:1" fill="#0d4f8f" d="M 388.5,169.5 C 395.906,169.152 403.239,169.652 410.5,171C 411.022,171.561 411.355,172.228 411.5,173C 410.667,175.5 409.833,178 409,180.5C 393.444,174.946 382.11,179.612 375,194.5C 370.919,217.917 380.419,226.583 403.5,220.5C 403.5,223.5 403.5,226.5 403.5,229.5C 394.872,231.831 386.205,231.998 377.5,230C 369.836,227.002 365.003,221.502 363,213.5C 360.001,192.032 368.501,177.365 388.5,169.5 Z"/></g>
<g><path style="opacity:1" fill="#6e98bd" d="M 361.5,170.5 C 357.731,170.244 354.064,170.577 350.5,171.5C 351.871,170.213 353.705,169.547 356,169.5C 358.033,169.506 359.866,169.839 361.5,170.5 Z"/></g>
<g><path style="opacity:1" fill="#6d98bd" d="M 309.5,170.5 C 320.674,169.176 332.007,169.176 343.5,170.5C 343.376,171.107 343.043,171.44 342.5,171.5C 331.679,170.505 320.679,170.172 309.5,170.5 Z"/></g>
<g><path style="opacity:1" fill="#104f90" d="M 266.5,169.5 C 275.395,168.4 283.728,169.9 291.5,174C 296.517,179.535 299.184,186.035 299.5,193.5C 299.013,203.796 295.846,213.129 290,221.5C 278.409,232.276 265.576,234.109 251.5,227C 243.058,217.989 240.558,207.489 244,195.5C 247.122,182.888 254.622,174.222 266.5,169.5 Z"/></g>
<g><path style="opacity:1" fill="#fbfcfd" d="M 270.5,177.5 C 278.298,176.479 283.798,179.479 287,186.5C 289.56,198.841 286.727,209.675 278.5,219C 270.817,224.13 263.65,223.63 257,217.5C 252.947,206.328 253.947,195.662 260,185.5C 262.975,181.952 266.475,179.286 270.5,177.5 Z"/></g>
<g><path style="opacity:1" fill="#6b97bc" d="M 205.5,170.5 C 219.99,169.504 234.657,169.171 249.5,169.5C 249.737,170.791 249.404,171.791 248.5,172.5C 234.539,170.517 220.206,169.85 205.5,170.5 Z"/></g>
<g><path style="opacity:1" fill="#903233" d="M 143.5,167.5 C 155.021,165.888 165.687,168.054 175.5,174C 183.472,182.914 184.638,192.748 179,203.5C 177.039,206.463 174.706,209.129 172,211.5C 173.464,207.339 174.797,203.006 176,198.5C 177.956,184.121 171.789,175.621 157.5,173C 151.167,172.333 144.833,172.333 138.5,173C 131.477,175.192 124.811,177.859 118.5,181C 125.757,174.373 134.091,169.873 143.5,167.5 Z"/></g>
<g><path style="opacity:1" fill="#24639b" d="M 123.5,107.5 C 125.45,111.871 126.784,116.538 127.5,121.5C 99.0195,129.55 71.0195,139.217 43.5,150.5C 61.5116,137.208 80.8449,125.875 101.5,116.5C 108.612,112.943 115.945,109.943 123.5,107.5 Z"/></g>
<g><path style="opacity:1" fill="#4179a9" d="M 155.5,95.5 C 157.92,101.508 159.587,107.841 160.5,114.5C 149.457,116.678 138.457,119.011 127.5,121.5C 126.784,116.538 125.45,111.871 123.5,107.5C 125.853,105.657 128.52,104.323 131.5,103.5C 139.438,100.632 147.438,97.9651 155.5,95.5 Z"/></g>
<g><path style="opacity:1" fill="#5386b1" d="M 195.5,84.5 C 196.915,91.9124 198.582,99.2457 200.5,106.5C 187.194,108.761 173.861,111.428 160.5,114.5C 159.587,107.841 157.92,101.508 155.5,95.5C 157.214,94.2616 159.214,93.595 161.5,93.5C 172.603,89.6887 183.937,86.6887 195.5,84.5 Z"/></g>
<g><path style="opacity:1" fill="#6995bb" d="M 223.5,78.5 C 222.528,79.3991 221.862,80.5657 221.5,82C 222.769,88.5137 224.103,95.0137 225.5,101.5C 225.058,102.739 224.391,103.739 223.5,104.5C 215.833,105.167 208.167,105.833 200.5,106.5C 198.582,99.2457 196.915,91.9124 195.5,84.5C 195.842,83.6618 196.508,83.3284 197.5,83.5C 206.119,81.6189 214.785,79.9523 223.5,78.5 Z"/></g>
<g><path style="opacity:1" fill="#046655" d="M 91.5,81.5 C 95.5895,92.844 98.9229,104.511 101.5,116.5C 80.8449,125.875 61.5116,137.208 43.5,150.5C 42.828,151.267 41.9947,151.934 41,152.5C 52.8794,125.445 69.7127,101.778 91.5,81.5 Z"/></g>
<g><path style="opacity:1" fill="#7aa1c3" d="M 247.5,74.5 C 246.737,75.2679 245.737,75.7679 244.5,76C 246.58,84.4858 248.58,92.9858 250.5,101.5C 241.49,102.263 232.49,103.263 223.5,104.5C 224.391,103.739 225.058,102.739 225.5,101.5C 224.103,95.0137 222.769,88.5137 221.5,82C 221.862,80.5657 222.528,79.3991 223.5,78.5C 229.762,77.0921 236.095,76.0921 242.5,75.5C 244.042,74.6993 245.708,74.366 247.5,74.5 Z"/></g>
<g><path style="opacity:1" fill="#e3ebf2" d="M 396.5,72.5 C 403.462,78.2914 410.295,84.2914 417,90.5C 424.737,99.0677 431.904,108.068 438.5,117.5C 437.833,117.833 437.167,118.167 436.5,118.5C 423.149,115.059 409.815,112.059 396.5,109.5C 394.295,97.1402 391.961,84.8068 389.5,72.5C 391.833,72.5 394.167,72.5 396.5,72.5 Z"/></g>
<g><path style="opacity:1" fill="#88abc9" d="M 265.5,72.5 C 267.5,81.8333 269.5,91.1667 271.5,100.5C 264.51,100.999 257.51,101.332 250.5,101.5C 248.58,92.9858 246.58,84.4858 244.5,76C 245.737,75.7679 246.737,75.2679 247.5,74.5C 250.881,74.5405 254.214,74.2071 257.5,73.5C 260.096,72.7347 262.763,72.4013 265.5,72.5 Z"/></g>
<g><path style="opacity:1" fill="#94b4cf" d="M 286.5,70.5 C 288.816,80.4301 290.816,90.4301 292.5,100.5C 285.5,100.5 278.5,100.5 271.5,100.5C 269.5,91.1667 267.5,81.8333 265.5,72.5C 269.5,72.1667 273.5,71.8333 277.5,71.5C 280.518,71.2962 283.518,70.9629 286.5,70.5 Z"/></g>
<g><path style="opacity:1" fill="#d6e2ec" d="M 369.5,70.5 C 377.989,71.6393 386.323,71.6393 394.5,70.5C 395.5,70.8333 396.167,71.5 396.5,72.5C 394.167,72.5 391.833,72.5 389.5,72.5C 391.961,84.8068 394.295,97.1402 396.5,109.5C 387.957,108.653 379.624,107.32 371.5,105.5C 373.199,105.66 374.866,105.494 376.5,105C 373.618,93.6341 371.285,82.1341 369.5,70.5 Z"/></g>
<g><path style="opacity:1" fill="#c9d9e7" d="M 349.5,69.5 C 351.5,69.5 353.5,69.5 355.5,69.5C 359.97,70.4861 364.637,70.8195 369.5,70.5C 371.285,82.1341 373.618,93.6341 376.5,105C 374.866,105.494 373.199,105.66 371.5,105.5C 366.044,105.482 360.711,104.815 355.5,103.5C 353.628,92.141 351.628,80.8076 349.5,69.5 Z"/></g>
<g><path style="opacity:1" fill="#a0bcd4" d="M 306.5,69.5 C 307.833,69.5 309.167,69.5 310.5,69.5C 308.708,70.3091 306.708,70.8091 304.5,71C 306.944,80.7214 308.944,90.5547 310.5,100.5C 308.5,100.5 306.5,100.5 304.5,100.5C 300.5,100.5 296.5,100.5 292.5,100.5C 290.816,90.4301 288.816,80.4301 286.5,70.5C 287.5,70.5 288.5,70.5 289.5,70.5C 295.13,69.7081 300.797,69.3748 306.5,69.5 Z"/></g>
<g><path style="opacity:1" fill="#b9cddf" d="M 310.5,69.5 C 313.5,69.5 316.5,69.5 319.5,69.5C 329.5,69.5 339.5,69.5 349.5,69.5C 351.628,80.8076 353.628,92.141 355.5,103.5C 338.347,102.472 321.347,101.472 304.5,100.5C 306.5,100.5 308.5,100.5 310.5,100.5C 308.944,90.5547 306.944,80.7214 304.5,71C 306.708,70.8091 308.708,70.3091 310.5,69.5 Z"/></g>
<g><path style="opacity:1" fill="#01645a" d="M 119.5,59.5 C 123.703,74.1101 127.703,88.7768 131.5,103.5C 128.52,104.323 125.853,105.657 123.5,107.5C 115.945,109.943 108.612,112.943 101.5,116.5C 98.9229,104.511 95.5895,92.844 91.5,81.5C 99.9669,73.0295 109.3,65.6962 119.5,59.5 Z"/></g>
<g><path style="opacity:1" fill="#b0ccd4" d="M 355.5,44.5 C 369.611,51.631 382.611,60.2977 394.5,70.5C 386.323,71.6393 377.989,71.6393 369.5,70.5C 364.637,70.8195 359.97,70.4861 355.5,69.5C 357.527,69.6621 359.527,69.4955 361.5,69C 358.954,60.984 356.954,52.8173 355.5,44.5 Z"/></g>
<g><path style="opacity:1" fill="#016261" d="M 148.5,42.5 C 152.78,59.1207 157.447,75.6207 162.5,92C 161.944,92.3826 161.611,92.8826 161.5,93.5C 159.214,93.595 157.214,94.2616 155.5,95.5C 147.438,97.9651 139.438,100.632 131.5,103.5C 127.703,88.7768 123.703,74.1101 119.5,59.5C 128.337,52.5757 138.003,46.9091 148.5,42.5 Z"/></g>
<g><path style="opacity:1" fill="#8bb4bf" d="M 316.5,29.5 C 330.038,33.1024 343.038,38.1024 355.5,44.5C 356.954,52.8173 358.954,60.984 361.5,69C 359.527,69.4955 357.527,69.6621 355.5,69.5C 353.5,69.5 351.5,69.5 349.5,69.5C 339.5,69.5 329.5,69.5 319.5,69.5C 321.265,68.5386 323.265,68.2053 325.5,68.5C 323.387,55.2665 320.387,42.2665 316.5,29.5 Z"/></g>
<g><path style="opacity:1" fill="#016067" d="M 183.5,28.5 C 183.389,29.1174 183.056,29.6174 182.5,30C 187.887,47.713 192.887,65.5464 197.5,83.5C 196.508,83.3284 195.842,83.6618 195.5,84.5C 183.937,86.6887 172.603,89.6887 161.5,93.5C 161.611,92.8826 161.944,92.3826 162.5,92C 157.447,75.6207 152.78,59.1207 148.5,42.5C 159.545,36.4842 171.212,31.8176 183.5,28.5 Z"/></g>
<g><path style="opacity:1" fill="#6da1ae" d="M 295.5,23.5 C 302.733,25.0547 309.733,27.0547 316.5,29.5C 320.387,42.2665 323.387,55.2665 325.5,68.5C 323.265,68.2053 321.265,68.5386 319.5,69.5C 316.5,69.5 313.5,69.5 310.5,69.5C 309.167,69.5 307.833,69.5 306.5,69.5C 303.148,54.0928 299.482,38.7595 295.5,23.5 Z"/></g>
<g><path style="opacity:1" fill="#5592a0" d="M 277.5,20.5 C 283.429,21.7104 289.429,22.7104 295.5,23.5C 299.482,38.7595 303.148,54.0928 306.5,69.5C 300.797,69.3748 295.13,69.7081 289.5,70.5C 284.885,53.9869 280.885,37.3203 277.5,20.5 Z"/></g>
<g><path style="opacity:1" fill="#025f6d" d="M 208.5,22.5 C 213.5,41.1667 218.5,59.8333 223.5,78.5C 214.785,79.9523 206.119,81.6189 197.5,83.5C 192.887,65.5464 187.887,47.713 182.5,30C 183.056,29.6174 183.389,29.1174 183.5,28.5C 191.622,25.7198 199.955,23.7198 208.5,22.5 Z"/></g>
<g><path style="opacity:1" fill="#035e71" d="M 223.5,20.5 C 226.394,20.0423 228.894,20.709 231,22.5C 236.052,39.9261 239.885,57.5928 242.5,75.5C 236.095,76.0921 229.762,77.0921 223.5,78.5C 218.5,59.8333 213.5,41.1667 208.5,22.5C 213.433,21.6387 218.433,20.972 223.5,20.5 Z"/></g>
<g><path style="opacity:1" fill="#408595" d="M 265.5,19.5 C 269.5,19.8333 273.5,20.1667 277.5,20.5C 280.885,37.3203 284.885,53.9869 289.5,70.5C 288.5,70.5 287.5,70.5 286.5,70.5C 283.518,70.9629 280.518,71.2962 277.5,71.5C 273.628,54.1391 269.628,36.8058 265.5,19.5 Z"/></g>
<g><path style="opacity:1" fill="#327b8c" d="M 233.5,19.5 C 244.019,18.2514 254.686,18.2514 265.5,19.5C 269.628,36.8058 273.628,54.1391 277.5,71.5C 273.5,71.8333 269.5,72.1667 265.5,72.5C 262.763,72.4013 260.096,72.7347 257.5,73.5C 257.804,72.8501 258.137,72.1835 258.5,71.5C 257.756,68.557 257.256,65.557 257,62.5C 252.831,48.9965 249.164,35.3298 246,21.5C 242.164,19.6112 237.997,18.9445 233.5,19.5 Z"/></g>
<g><path style="opacity:1" fill="#176a7d" d="M 223.5,20.5 C 226.625,19.5206 229.958,19.1872 233.5,19.5C 237.997,18.9445 242.164,19.6112 246,21.5C 249.164,35.3298 252.831,48.9965 257,62.5C 257.256,65.557 257.756,68.557 258.5,71.5C 258.137,72.1835 257.804,72.8501 257.5,73.5C 254.214,74.2071 250.881,74.5405 247.5,74.5C 245.708,74.366 244.042,74.6993 242.5,75.5C 239.885,57.5928 236.052,39.9261 231,22.5C 228.894,20.709 226.394,20.0423 223.5,20.5 Z"/></g>
<g><path style="opacity:1" fill="#9cb7d2" d="M 174.5,213.5 C 180.158,212.679 181.825,214.846 179.5,220C 173.741,221.139 172.074,218.972 174.5,213.5 Z"/></g>
<g><path style="opacity:1" fill="#9bb7d1" d="M 409.5,223.5 C 414.006,222.527 416.172,224.194 416,228.5C 414.116,230.576 411.949,230.91 409.5,229.5C 408.181,227.468 408.181,225.468 409.5,223.5 Z"/></g>
<g><path style="opacity:1" fill="#5587b2" d="M 184.5,278.5 C 178.402,277.883 172.735,278.55 167.5,280.5C 166.596,279.791 166.263,278.791 166.5,277.5C 172.69,277.177 178.69,277.51 184.5,278.5 Z"/></g>
<g><path style="opacity:1" fill="#225996" d="M 238.5,277.5 C 250.976,277.439 255.476,283.439 252,295.5C 249.037,301.561 244.203,303.728 237.5,302C 231.826,297.515 229.993,291.681 232,284.5C 233.694,281.642 235.861,279.309 238.5,277.5 Z"/></g>
<g><path style="opacity:1" fill="#205896" d="M 268.5,277.5 C 274.039,276.638 278.872,277.972 283,281.5C 284.059,285.381 282.892,288.381 279.5,290.5C 281.956,294.093 283.289,298.093 283.5,302.5C 282.5,302.5 281.5,302.5 280.5,302.5C 280.135,299.375 279.302,296.375 278,293.5C 276.211,291.771 274.044,291.104 271.5,291.5C 271.5,295.167 271.5,298.833 271.5,302.5C 270.5,302.5 269.5,302.5 268.5,302.5C 268.5,294.167 268.5,285.833 268.5,277.5 Z"/></g>
<g><path style="opacity:1" fill="#285c98" d="M 378.5,277.5 C 391.896,275.731 397.73,281.398 396,294.5C 394.73,298.77 391.896,301.27 387.5,302C 384.183,302.498 380.85,302.665 377.5,302.5C 377.198,294.082 377.531,285.748 378.5,277.5 Z"/></g>
<g><path style="opacity:1" fill="#1f5795" d="M 109.5,277.5 C 111.167,277.5 112.833,277.5 114.5,277.5C 116.833,285.5 119.167,293.5 121.5,301.5C 120.325,301.719 119.325,301.386 118.5,300.5C 117.833,298.833 117.167,297.167 116.5,295.5C 109.069,292.351 105.402,294.685 105.5,302.5C 104.022,302.762 102.689,302.429 101.5,301.5C 104.771,293.686 107.438,285.686 109.5,277.5 Z"/></g>
<g><path style="opacity:1" fill="#145291" d="M 135.5,277.5 C 136.5,277.5 137.5,277.5 138.5,277.5C 138.334,283.509 138.501,289.509 139,295.5C 140.691,299.213 143.525,300.379 147.5,299C 148.701,298.097 149.535,296.931 150,295.5C 150.499,289.509 150.666,283.509 150.5,277.5C 151.5,277.5 152.5,277.5 153.5,277.5C 153.884,284.589 153.384,291.589 152,298.5C 148.146,302.671 143.646,303.504 138.5,301C 137.874,300.25 137.374,299.416 137,298.5C 135.616,291.589 135.116,284.589 135.5,277.5 Z"/></g>
<g><path style="opacity:1" fill="#0f5191" d="M 184.5,278.5 C 182.721,280.344 180.388,281.01 177.5,280.5C 177.5,287.833 177.5,295.167 177.5,302.5C 176.5,302.5 175.5,302.5 174.5,302.5C 174.5,295.167 174.5,287.833 174.5,280.5C 172.167,280.5 169.833,280.5 167.5,280.5C 172.735,278.55 178.402,277.883 184.5,278.5 Z"/></g>
<g><path style="opacity:1" fill="#165593" d="M 201.5,287.5 C 205.298,288.483 209.298,288.817 213.5,288.5C 213.5,284.833 213.5,281.167 213.5,277.5C 214.5,277.5 215.5,277.5 216.5,277.5C 216.5,285.833 216.5,294.167 216.5,302.5C 215.5,302.5 214.5,302.5 213.5,302.5C 213.5,298.5 213.5,294.5 213.5,290.5C 209.298,290.183 205.298,290.517 201.5,291.5C 201.5,295.167 201.5,298.833 201.5,302.5C 200.5,302.5 199.5,302.5 198.5,302.5C 198.5,294.167 198.5,285.833 198.5,277.5C 199.5,277.5 200.5,277.5 201.5,277.5C 201.5,280.833 201.5,284.167 201.5,287.5 Z"/></g>
<g><path style="opacity:1" fill="#165493" d="M 298.5,277.5 C 299.5,277.5 300.5,277.5 301.5,277.5C 301.5,285.833 301.5,294.167 301.5,302.5C 300.5,302.5 299.5,302.5 298.5,302.5C 298.5,294.167 298.5,285.833 298.5,277.5 Z"/></g>
<g><path style="opacity:1" fill="#225a97" d="M 316.5,277.5 C 322.167,277.5 327.833,277.5 333.5,277.5C 329.835,284.982 325.502,292.149 320.5,299C 324.821,299.499 329.154,299.666 333.5,299.5C 333.5,300.5 333.5,301.5 333.5,302.5C 327.5,302.5 321.5,302.5 315.5,302.5C 319.341,295.298 323.674,288.298 328.5,281.5C 324.555,280.509 320.555,280.176 316.5,280.5C 316.5,279.5 316.5,278.5 316.5,277.5 Z"/></g>
<g><path style="opacity:1" fill="#115291" d="M 361.5,299.5 C 357.627,301.43 353.294,302.097 348.5,301.5C 348.5,293.5 348.5,285.5 348.5,277.5C 352.833,277.5 357.167,277.5 361.5,277.5C 361.5,278.5 361.5,279.5 361.5,280.5C 358.167,280.5 354.833,280.5 351.5,280.5C 351.5,283.167 351.5,285.833 351.5,288.5C 363.5,289.167 363.5,289.833 351.5,290.5C 351.5,293.5 351.5,296.5 351.5,299.5C 354.833,299.5 358.167,299.5 361.5,299.5 Z"/></g>
<g><path style="opacity:1" fill="#5889b4" d="M 378.5,277.5 C 377.531,285.748 377.198,294.082 377.5,302.5C 376.834,298.514 376.501,294.347 376.5,290C 376.509,285.443 377.175,281.276 378.5,277.5 Z"/></g>
<g><path style="opacity:1" fill="#fafbfc" d="M 238.5,280.5 C 247.965,280.372 251.465,285.039 249,294.5C 245.468,300.29 241.135,300.957 236,296.5C 233.355,290.508 234.188,285.175 238.5,280.5 Z"/></g>
<g><path style="opacity:1" fill="#f4f7fa" d="M 271.5,280.5 C 278.659,278.82 280.993,281.32 278.5,288C 276.323,289.202 273.989,289.702 271.5,289.5C 271.5,286.5 271.5,283.5 271.5,280.5 Z"/></g>
<g><path style="opacity:1" fill="#fbfcfd" d="M 380.5,280.5 C 393.307,280.439 396.641,286.106 390.5,297.5C 387.465,299.301 384.131,299.968 380.5,299.5C 380.5,293.167 380.5,286.833 380.5,280.5 Z"/></g>
<g><path style="opacity:1" fill="#dfe8f0" d="M 111.5,281.5 C 113.002,284.654 114.336,287.987 115.5,291.5C 113.257,292.474 110.924,292.808 108.5,292.5C 109.297,288.777 110.297,285.11 111.5,281.5 Z"/></g>
<g><path style="opacity:1" fill="#99b7d1" d="M 213.5,277.5 C 213.5,281.167 213.5,284.833 213.5,288.5C 209.298,288.817 205.298,288.483 201.5,287.5C 205.167,287.5 208.833,287.5 212.5,287.5C 212.187,283.958 212.521,280.625 213.5,277.5 Z"/></g>
<g><path style="opacity:1" fill="#aac3d9" d="M 201.5,291.5 C 205.298,290.517 209.298,290.183 213.5,290.5C 213.5,294.5 213.5,298.5 213.5,302.5C 212.518,299.038 212.185,295.371 212.5,291.5C 208.833,291.5 205.167,291.5 201.5,291.5 Z"/></g>
<g><path style="opacity:1" fill="#5081af" d="M 361.5,299.5 C 362.404,300.209 362.737,301.209 362.5,302.5C 357.637,302.819 352.97,302.486 348.5,301.5C 353.294,302.097 357.627,301.43 361.5,299.5 Z"/></g>
<g><path style="opacity:1" fill="#105090" d="M 237.5,307.5 C 242.511,307.334 247.511,307.501 252.5,308C 253.308,308.308 253.975,308.808 254.5,309.5C 253.691,311.071 253.357,312.738 253.5,314.5C 240.772,310.355 233.106,314.688 230.5,327.5C 232.494,341.011 240.161,345.678 253.5,341.5C 253.5,343.5 253.5,345.5 253.5,347.5C 231.324,351.821 221.491,342.821 224,320.5C 226.773,314.228 231.273,309.894 237.5,307.5 Z"/></g>
<g><path style="opacity:1" fill="#084d8e" d="M 113.5,308.5 C 123.5,308.5 133.5,308.5 143.5,308.5C 143.5,310.167 143.5,311.833 143.5,313.5C 139.629,313.185 135.962,313.518 132.5,314.5C 131.505,325.321 131.172,336.321 131.5,347.5C 129.5,347.5 127.5,347.5 125.5,347.5C 125.828,336.321 125.495,325.321 124.5,314.5C 120.833,314.5 117.167,314.5 113.5,314.5C 113.5,312.5 113.5,310.5 113.5,308.5 Z"/></g>
<g><path style="opacity:1" fill="#1a5493" d="M 190.5,319.5 C 192.167,319.5 193.833,319.5 195.5,319.5C 195.5,317.5 195.5,315.5 195.5,313.5C 201.6,310.046 203.933,312.046 202.5,319.5C 204.833,319.5 207.167,319.5 209.5,319.5C 209.5,321.167 209.5,322.833 209.5,324.5C 207.167,324.5 204.833,324.5 202.5,324.5C 202.334,330.176 202.501,335.843 203,341.5C 204.699,342.406 206.533,342.739 208.5,342.5C 208.5,344.5 208.5,346.5 208.5,348.5C 204.416,348.957 200.583,348.29 197,346.5C 196.138,344.913 195.471,343.246 195,341.5C 194.501,335.843 194.334,330.176 194.5,324.5C 193.167,324.5 191.833,324.5 190.5,324.5C 190.5,322.833 190.5,321.167 190.5,319.5 Z"/></g>
<g><path style="opacity:1" fill="#074d8e" d="M 325.5,312.5 C 327.344,314.279 328.01,316.612 327.5,319.5C 329.833,319.5 332.167,319.5 334.5,319.5C 334.5,321.167 334.5,322.833 334.5,324.5C 332.167,324.5 329.833,324.5 327.5,324.5C 327.179,330.026 327.512,335.36 328.5,340.5C 329.99,342.28 331.99,342.946 334.5,342.5C 334.5,344.5 334.5,346.5 334.5,348.5C 331.15,348.665 327.817,348.498 324.5,348C 323.667,347.167 322.833,346.333 322,345.5C 320.575,338.615 320.075,331.615 320.5,324.5C 319.167,324.5 317.833,324.5 316.5,324.5C 316.5,322.833 316.5,321.167 316.5,319.5C 317.833,319.5 319.167,319.5 320.5,319.5C 319.685,315.167 321.352,312.834 325.5,312.5 Z"/></g>
<g><path style="opacity:1" fill="#a2bdd5" d="M 325.5,312.5 C 326.209,311.596 327.209,311.263 328.5,311.5C 328.5,313.833 328.5,316.167 328.5,318.5C 330.735,318.205 332.735,318.539 334.5,319.5C 332.167,319.5 329.833,319.5 327.5,319.5C 328.01,316.612 327.344,314.279 325.5,312.5 Z"/></g>
<g><path style="opacity:1" fill="#6b96bc" d="M 113.5,308.5 C 123.653,307.506 133.986,307.172 144.5,307.5C 144.5,309.833 144.5,312.167 144.5,314.5C 140.5,314.5 136.5,314.5 132.5,314.5C 135.962,313.518 139.629,313.185 143.5,313.5C 143.5,311.833 143.5,310.167 143.5,308.5C 133.5,308.5 123.5,308.5 113.5,308.5 Z"/></g>
<g><path style="opacity:1" fill="#487dac" d="M 124.5,314.5 C 125.495,325.321 125.828,336.321 125.5,347.5C 127.5,347.5 129.5,347.5 131.5,347.5C 131.172,336.321 131.505,325.321 132.5,314.5C 132.5,325.833 132.5,337.167 132.5,348.5C 129.833,348.5 127.167,348.5 124.5,348.5C 124.5,337.167 124.5,325.833 124.5,314.5 Z"/></g>
<g><path style="opacity:1" fill="#105090" d="M 147.5,318.5 C 160.01,317.344 166.01,323.011 165.5,335.5C 158.833,335.5 152.167,335.5 145.5,335.5C 146.042,341.204 149.208,343.871 155,343.5C 157.54,343.104 160.04,342.937 162.5,343C 163.38,344.356 163.714,345.856 163.5,347.5C 145.424,352.575 137.258,345.908 139,327.5C 140.688,323.315 143.521,320.315 147.5,318.5 Z"/></g>
<g><path style="opacity:1" fill="#145291" d="M 175.5,318.5 C 178.85,318.335 182.183,318.502 185.5,319C 187.855,320.865 188.022,323.031 186,325.5C 182.331,322.542 179.164,322.876 176.5,326.5C 178.174,329.524 180.841,331.357 184.5,332C 191.554,338.338 190.887,343.671 182.5,348C 178.5,348.667 174.5,348.667 170.5,348C 168.145,346.135 167.978,343.969 170,341.5C 173.512,343.648 177.179,343.981 181,342.5C 181.667,341.167 181.667,339.833 181,338.5C 177.028,336.679 173.361,334.345 170,331.5C 169.333,328.833 169.333,326.167 170,323.5C 171.73,321.598 173.563,319.931 175.5,318.5 Z"/></g>
<g><path style="opacity:1" fill="#94b2ce" d="M 195.5,313.5 C 195.5,315.5 195.5,317.5 195.5,319.5C 193.833,319.5 192.167,319.5 190.5,319.5C 191.568,318.566 192.901,318.232 194.5,318.5C 194.216,316.585 194.549,314.919 195.5,313.5 Z"/></g>
<g><path style="opacity:1" fill="#105090" d="M 265.5,318.5 C 278.01,317.344 284.01,323.011 283.5,335.5C 276.833,335.5 270.167,335.5 263.5,335.5C 264.042,341.204 267.208,343.871 273,343.5C 275.54,343.104 278.04,342.937 280.5,343C 281.38,344.356 281.714,345.856 281.5,347.5C 263.424,352.575 255.258,345.908 257,327.5C 258.688,323.315 261.521,320.315 265.5,318.5 Z"/></g>
<g><path style="opacity:1" fill="#054c8e" d="M 313.5,326.5 C 313.5,333.5 313.5,340.5 313.5,347.5C 311.5,347.5 309.5,347.5 307.5,347.5C 307.823,341.31 307.49,335.31 306.5,329.5C 305.412,325.252 302.745,323.752 298.5,325C 296.859,326.129 295.859,327.629 295.5,329.5C 294.51,335.31 294.177,341.31 294.5,347.5C 292.5,347.5 290.5,347.5 288.5,347.5C 288.827,338.318 288.493,329.318 287.5,320.5C 289.607,319.532 291.941,319.198 294.5,319.5C 294.351,320.552 294.517,321.552 295,322.5C 299.168,318.236 304.002,317.403 309.5,320C 311.734,321.638 313.067,323.805 313.5,326.5 Z"/></g>
<g><path style="opacity:1" fill="#125090" d="M 346.5,318.5 C 359.167,317.167 364.833,322.833 363.5,335.5C 357.167,335.5 350.833,335.5 344.5,335.5C 344.327,339.17 345.993,341.67 349.5,343C 353.51,343.357 357.51,343.19 361.5,342.5C 361.5,344.167 361.5,345.833 361.5,347.5C 356.204,348.509 350.871,348.676 345.5,348C 335.931,341.668 334.098,333.501 340,323.5C 341.965,321.45 344.132,319.783 346.5,318.5 Z"/></g>
<g><path style="opacity:1" fill="#0e4f8f" d="M 376.5,331.5 C 375.512,336.64 375.179,341.974 375.5,347.5C 373.5,347.5 371.5,347.5 369.5,347.5C 369.827,338.318 369.493,329.318 368.5,320.5C 370.607,319.532 372.941,319.198 375.5,319.5C 375.351,320.552 375.517,321.552 376,322.5C 378.408,319.38 381.574,318.047 385.5,318.5C 385.5,320.833 385.5,323.167 385.5,325.5C 380.291,324.396 377.291,326.396 376.5,331.5 Z"/></g>
<g><path style="opacity:1" fill="#f3f6f9" d="M 149.5,323.5 C 154.874,322.88 157.874,325.214 158.5,330.5C 154.167,330.5 149.833,330.5 145.5,330.5C 145.961,327.697 147.295,325.363 149.5,323.5 Z"/></g>
<g><path style="opacity:1" fill="#f3f6f9" d="M 267.5,323.5 C 272.874,322.88 275.874,325.214 276.5,330.5C 272.167,330.5 267.833,330.5 263.5,330.5C 263.961,327.697 265.295,325.363 267.5,323.5 Z"/></g>
<g><path style="opacity:1" fill="#f7f9fb" d="M 348.5,323.5 C 353.682,323.018 356.349,325.351 356.5,330.5C 352.5,330.5 348.5,330.5 344.5,330.5C 344.571,327.348 345.905,325.014 348.5,323.5 Z"/></g>
<g><path style="opacity:1" fill="#a7c0d7" d="M 334.5,324.5 C 332.735,325.461 330.735,325.795 328.5,325.5C 328.5,330.5 328.5,335.5 328.5,340.5C 327.512,335.36 327.179,330.026 327.5,324.5C 329.833,324.5 332.167,324.5 334.5,324.5 Z"/></g>
<g><path style="opacity:1" fill="#4e81af" d="M 287.5,320.5 C 288.493,329.318 288.827,338.318 288.5,347.5C 290.5,347.5 292.5,347.5 294.5,347.5C 294.177,341.31 294.51,335.31 295.5,329.5C 295.5,335.833 295.5,342.167 295.5,348.5C 292.833,348.5 290.167,348.5 287.5,348.5C 287.5,339.167 287.5,329.833 287.5,320.5 Z"/></g>
<g><path style="opacity:1" fill="#5284b1" d="M 313.5,326.5 C 314.492,333.648 314.825,340.981 314.5,348.5C 311.833,348.5 309.167,348.5 306.5,348.5C 306.5,342.167 306.5,335.833 306.5,329.5C 307.49,335.31 307.823,341.31 307.5,347.5C 309.5,347.5 311.5,347.5 313.5,347.5C 313.5,340.5 313.5,333.5 313.5,326.5 Z"/></g>
<g><path style="opacity:1" fill="#4e81af" d="M 368.5,320.5 C 369.493,329.318 369.827,338.318 369.5,347.5C 371.5,347.5 373.5,347.5 375.5,347.5C 375.179,341.974 375.512,336.64 376.5,331.5C 376.5,337.167 376.5,342.833 376.5,348.5C 373.833,348.5 371.167,348.5 368.5,348.5C 368.5,339.167 368.5,329.833 368.5,320.5 Z"/></g>
<g><path style="opacity:1" fill="#226099" d="M 456.5,348.5 C 438.799,361.489 419.799,372.489 399.5,381.5C 399.406,377.864 398.739,374.364 397.5,371C 398.056,370.617 398.389,370.117 398.5,369.5C 418.134,363.289 437.467,356.289 456.5,348.5 Z"/></g>
<g><path style="opacity:1" fill="#066655" d="M 408.5,417.5 C 406.63,411.389 404.63,405.222 402.5,399C 403.094,398.536 403.761,398.369 404.5,398.5C 405.268,399.263 405.768,400.263 406,401.5C 406.833,400 408,398.833 409.5,398C 408.328,397.581 407.328,396.915 406.5,396C 407.825,396.148 408.992,395.982 410,395.5C 411.31,393.868 411.81,392.201 411.5,390.5C 412.251,391.376 412.751,392.376 413,393.5C 414.452,392.093 414.285,390.593 412.5,389C 414.007,388.163 414.507,386.996 414,385.5C 410.643,387.787 408.81,390.621 408.5,394C 406.751,394.785 405.084,395.618 403.5,396.5C 402.883,396.389 402.383,396.056 402,395.5C 400.673,391.192 399.507,386.859 398.5,382.5C 399.167,382.5 399.5,382.167 399.5,381.5C 419.799,372.489 438.799,361.489 456.5,348.5C 457.172,347.733 458.005,347.066 459,346.5C 447.121,373.555 430.287,397.222 408.5,417.5 Z"/></g>
<g><path style="opacity:1" fill="#3d75a7" d="M 398.5,369.5 C 398.389,370.117 398.056,370.617 397.5,371C 398.739,374.364 399.406,377.864 399.5,381.5C 399.5,382.167 399.167,382.5 398.5,382.5C 388.436,386.87 378.436,391.203 368.5,395.5C 362.258,397.787 355.925,399.787 349.5,401.5C 348.5,395.5 347.5,389.5 346.5,383.5C 363.925,379.214 381.258,374.548 398.5,369.5 Z"/></g>
<g><path style="opacity:1" fill="#e6edf3" d="M 97.5,388.5 C 96.1667,388.5 94.8333,388.5 93.5,388.5C 95.8338,400.501 98.1671,412.501 100.5,424.5C 85.76,411.759 72.76,397.426 61.5,381.5C 62.1667,381.167 62.8333,380.833 63.5,380.5C 74.9631,383.201 86.2965,385.868 97.5,388.5 Z"/></g>
<g><path style="opacity:1" fill="#5788b4" d="M 346.5,383.5 C 347.5,389.5 348.5,395.5 349.5,401.5C 346.045,403.209 342.379,404.542 338.5,405.5C 327.235,408.816 315.902,411.816 304.5,414.5C 303.298,407.822 301.964,401.155 300.5,394.5C 300.685,393.416 301.018,392.416 301.5,391.5C 316.522,388.995 331.522,386.328 346.5,383.5 Z"/></g>
<g><path style="opacity:1" fill="#d0deea" d="M 97.5,388.5 C 110.144,390.664 122.81,392.664 135.5,394.5C 138.34,405.699 140.673,417.033 142.5,428.5C 140.833,428.5 139.167,428.5 137.5,428.5C 126.656,428.025 115.989,428.025 105.5,428.5C 103.809,427.136 102.142,425.803 100.5,424.5C 98.1671,412.501 95.8338,400.501 93.5,388.5C 94.8333,388.5 96.1667,388.5 97.5,388.5 Z"/></g>
<g><path style="opacity:1" fill="#6c97bd" d="M 301.5,391.5 C 301.018,392.416 300.685,393.416 300.5,394.5C 301.964,401.155 303.298,407.822 304.5,414.5C 303.508,414.328 302.842,414.662 302.5,415.5C 294.879,417.091 287.212,418.424 279.5,419.5C 277.834,411.504 276.167,403.504 274.5,395.5C 275.791,395.737 276.791,395.404 277.5,394.5C 285.533,393.74 293.533,392.74 301.5,391.5 Z"/></g>
<g><path style="opacity:1" fill="#c0d3e3" d="M 135.5,394.5 C 142.583,394.447 149.583,395.114 156.5,396.5C 158.34,407.528 160.34,418.528 162.5,429.5C 154.167,429.5 145.833,429.5 137.5,429.5C 137.5,429.167 137.5,428.833 137.5,428.5C 139.167,428.5 140.833,428.5 142.5,428.5C 140.673,417.033 138.34,405.699 135.5,394.5 Z"/></g>
<g><path style="opacity:1" fill="#026361" d="M 368.5,395.5 C 371.039,404.451 373.373,413.451 375.5,422.5C 374.262,422.81 374.262,423.31 375.5,424C 374.552,424.483 373.552,424.649 372.5,424.5C 372.671,427.797 372.005,428.131 370.5,425.5C 369.215,431.106 370.382,432.106 374,428.5C 374.977,429.774 375.811,429.774 376.5,428.5C 377.117,428.611 377.617,428.944 378,429.5C 378.943,432.824 379.776,436.157 380.5,439.5C 371.663,446.424 361.997,452.091 351.5,456.5C 350.983,452.778 350.15,449.112 349,445.5C 348.617,444.944 348.117,444.611 347.5,444.5C 346.624,444.631 345.957,444.298 345.5,443.5C 345.938,442.494 346.604,442.494 347.5,443.5C 348.776,442.386 348.776,441.386 347.5,440.5C 344.03,428.955 341.03,417.288 338.5,405.5C 342.379,404.542 346.045,403.209 349.5,401.5C 355.925,399.787 362.258,397.787 368.5,395.5 Z"/></g>
<g><path style="opacity:1" fill="#7da3c4" d="M 277.5,394.5 C 276.791,395.404 275.791,395.737 274.5,395.5C 276.167,403.504 277.834,411.504 279.5,419.5C 278.391,419.557 277.391,419.89 276.5,420.5C 270.17,421.583 263.837,422.583 257.5,423.5C 256.167,423.5 254.833,423.5 253.5,423.5C 252.09,414.781 250.423,406.115 248.5,397.5C 251.059,397.802 253.393,397.468 255.5,396.5C 262.833,395.833 270.167,395.167 277.5,394.5 Z"/></g>
<g><path style="opacity:1" fill="#b4cadd" d="M 156.5,396.5 C 164.252,396.762 171.919,397.429 179.5,398.5C 181.756,408.781 183.756,419.115 185.5,429.5C 181.5,429.5 177.5,429.5 173.5,429.5C 169.833,429.5 166.167,429.5 162.5,429.5C 160.34,418.528 158.34,407.528 156.5,396.5 Z"/></g>
<g><path style="opacity:1" fill="#649b92" d="M 404.5,398.5 C 404.167,397.833 403.833,397.167 403.5,396.5C 405.084,395.618 406.751,394.785 408.5,394C 408.81,390.621 410.643,387.787 414,385.5C 414.507,386.996 414.007,388.163 412.5,389C 414.285,390.593 414.452,392.093 413,393.5C 412.751,392.376 412.251,391.376 411.5,390.5C 411.81,392.201 411.31,393.868 410,395.5C 408.992,395.982 407.825,396.148 406.5,396C 407.328,396.915 408.328,397.581 409.5,398C 408,398.833 406.833,400 406,401.5C 405.768,400.263 405.268,399.263 404.5,398.5 Z"/></g>
<g><path style="opacity:1" fill="#a0bcd4" d="M 237.5,397.5 C 233.366,398.485 229.032,398.818 224.5,398.5C 225.91,407.881 227.576,417.214 229.5,426.5C 226.946,427.388 224.279,427.721 221.5,427.5C 216.807,427.54 212.141,427.873 207.5,428.5C 200.814,428.527 194.148,428.861 187.5,429.5C 186.833,429.5 186.167,429.5 185.5,429.5C 183.756,419.115 181.756,408.781 179.5,398.5C 198.844,398.621 218.177,398.288 237.5,397.5 Z"/></g>
<g><path style="opacity:1" fill="#8caecb" d="M 255.5,396.5 C 253.393,397.468 251.059,397.802 248.5,397.5C 250.423,406.115 252.09,414.781 253.5,423.5C 246.684,424.854 239.684,425.854 232.5,426.5C 231.5,426.5 230.5,426.5 229.5,426.5C 227.576,417.214 225.91,407.881 224.5,398.5C 229.032,398.818 233.366,398.485 237.5,397.5C 243.5,397.167 249.5,396.833 255.5,396.5 Z"/></g>
<g><path style="opacity:1" fill="#03645b" d="M 398.5,382.5 C 399.507,386.859 400.673,391.192 402,395.5C 402.383,396.056 402.883,396.389 403.5,396.5C 403.833,397.167 404.167,397.833 404.5,398.5C 403.761,398.369 403.094,398.536 402.5,399C 404.63,405.222 406.63,411.389 408.5,417.5C 400.033,425.97 390.7,433.304 380.5,439.5C 379.776,436.157 378.943,432.824 378,429.5C 377.617,428.944 377.117,428.611 376.5,428.5C 377.413,426.914 377.413,425.414 376.5,424C 379.205,424.498 381.538,423.498 383.5,421C 382.667,420.167 381.833,419.333 381,418.5C 379.743,420.746 377.91,422.079 375.5,422.5C 373.373,413.451 371.039,404.451 368.5,395.5C 378.436,391.203 388.436,386.87 398.5,382.5 Z"/></g>
<g><path style="opacity:1" fill="#086269" d="M 338.5,405.5 C 341.03,417.288 344.03,428.955 347.5,440.5C 345.298,441.792 343.631,443.626 342.5,446C 344.391,446.203 346.057,445.703 347.5,444.5C 348.117,444.611 348.617,444.944 349,445.5C 350.15,449.112 350.983,452.778 351.5,456.5C 340.838,462.39 329.505,466.724 317.5,469.5C 316.813,466.088 315.813,462.754 314.5,459.5C 314.863,458.817 315.196,458.15 315.5,457.5C 319.536,457.428 320.37,455.761 318,452.5C 317.25,453.126 316.416,453.626 315.5,454C 316.654,454.914 316.487,455.747 315,456.5C 314.722,455.584 314.222,454.918 313.5,454.5C 309.681,441.561 306.015,428.561 302.5,415.5C 302.842,414.662 303.508,414.328 304.5,414.5C 315.902,411.816 327.235,408.816 338.5,405.5 Z"/></g>
<g><path style="opacity:1" fill="#609891" d="M 399.5,400.5 C 404.426,402.818 404.426,404.651 399.5,406C 400.833,406.667 400.833,407.333 399.5,408C 397.608,408.973 395.608,409.64 393.5,410C 394.167,410.667 394.833,411.333 395.5,412C 393.376,413.122 391.543,414.622 390,416.5C 388.413,415.273 387.079,415.606 386,417.5C 385.612,414.46 386.778,413.46 389.5,414.5C 391.005,410.383 394.005,407.05 398.5,404.5C 399.429,403.311 399.762,401.978 399.5,400.5 Z"/></g>
<g><path style="opacity:1" fill="#045f6d" d="M 302.5,415.5 C 306.015,428.561 309.681,441.561 313.5,454.5C 312.833,454.5 312.5,454.833 312.5,455.5C 313.222,456.551 314.222,457.218 315.5,457.5C 315.196,458.15 314.863,458.817 314.5,459.5C 315.813,462.754 316.813,466.088 317.5,469.5C 309.184,472.676 300.517,475.009 291.5,476.5C 286.881,458.045 281.881,439.378 276.5,420.5C 277.391,419.89 278.391,419.557 279.5,419.5C 287.212,418.424 294.879,417.091 302.5,415.5 Z"/></g>
<g><path style="opacity:1" fill="#085f72" d="M 276.5,420.5 C 281.881,439.378 286.881,458.045 291.5,476.5C 285.833,477.167 280.167,477.833 274.5,478.5C 272.833,478.5 271.167,478.5 269.5,478.5C 269.045,475.797 268.378,473.13 267.5,470.5C 268.167,468.833 268.833,467.167 269.5,465.5C 266.741,461.182 264.574,456.516 263,451.5C 261.225,442.898 259.058,434.398 256.5,426C 256.743,425.098 257.077,424.265 257.5,423.5C 263.837,422.583 270.17,421.583 276.5,420.5 Z"/></g>
<g><path style="opacity:1" fill="#609794" d="M 376.5,428.5 C 375.811,429.774 374.977,429.774 374,428.5C 370.382,432.106 369.215,431.106 370.5,425.5C 372.005,428.131 372.671,427.797 372.5,424.5C 373.552,424.649 374.552,424.483 375.5,424C 374.262,423.31 374.262,422.81 375.5,422.5C 377.91,422.079 379.743,420.746 381,418.5C 381.833,419.333 382.667,420.167 383.5,421C 381.538,423.498 379.205,424.498 376.5,424C 377.413,425.414 377.413,426.914 376.5,428.5 Z"/></g>
<g><path style="opacity:1" fill="#206f82" d="M 253.5,423.5 C 254.833,423.5 256.167,423.5 257.5,423.5C 257.077,424.265 256.743,425.098 256.5,426C 259.058,434.398 261.225,442.898 263,451.5C 264.574,456.516 266.741,461.182 269.5,465.5C 268.833,467.167 268.167,468.833 267.5,470.5C 268.378,473.13 269.045,475.797 269.5,478.5C 271.167,478.5 272.833,478.5 274.5,478.5C 271.713,479.477 268.713,479.81 265.5,479.5C 261.833,479.5 258.167,479.5 254.5,479.5C 253.674,475.864 253.008,472.197 252.5,468.5C 255.684,468.668 256.184,467.334 254,464.5C 252.657,465.214 251.324,464.88 250,463.5C 248.271,466.079 246.438,466.079 244.5,463.5C 242.844,465.022 241.677,464.689 241,462.5C 238.228,450.472 235.395,438.472 232.5,426.5C 239.684,425.854 246.684,424.854 253.5,423.5 Z"/></g>
<g><path style="opacity:1" fill="#387e8f" d="M 229.5,426.5 C 230.5,426.5 231.5,426.5 232.5,426.5C 235.395,438.472 238.228,450.472 241,462.5C 241.677,464.689 242.844,465.022 244.5,463.5C 246.438,466.079 248.271,466.079 250,463.5C 251.324,464.88 252.657,465.214 254,464.5C 256.184,467.334 255.684,468.668 252.5,468.5C 253.008,472.197 253.674,475.864 254.5,479.5C 258.167,479.5 261.833,479.5 265.5,479.5C 254.655,480.697 243.655,480.697 232.5,479.5C 229.721,476.898 228.055,473.565 227.5,469.5C 229.686,468.779 231.853,468.113 234,467.5C 234.354,469.807 235.354,470.141 237,468.5C 238.332,470.936 239.499,470.936 240.5,468.5C 239.524,465.432 237.691,464.432 235,465.5C 232.239,464.692 229.572,463.692 227,462.5C 224.009,451.537 221.176,440.537 218.5,429.5C 219.602,428.824 220.602,428.158 221.5,427.5C 224.279,427.721 226.946,427.388 229.5,426.5 Z"/></g>
<g><path style="opacity:1" fill="#4a8a99" d="M 221.5,427.5 C 220.602,428.158 219.602,428.824 218.5,429.5C 221.176,440.537 224.009,451.537 227,462.5C 229.572,463.692 232.239,464.692 235,465.5C 237.691,464.432 239.524,465.432 240.5,468.5C 239.499,470.936 238.332,470.936 237,468.5C 235.354,470.141 234.354,469.807 234,467.5C 231.853,468.113 229.686,468.779 227.5,469.5C 228.055,473.565 229.721,476.898 232.5,479.5C 226.762,479.377 221.096,478.71 215.5,477.5C 210.571,461.865 206.904,445.865 204.5,429.5C 205.791,429.737 206.791,429.404 207.5,428.5C 212.141,427.873 216.807,427.54 221.5,427.5 Z"/></g>
<g><path style="opacity:1" fill="#b2cdd5" d="M 137.5,428.5 C 137.5,428.833 137.5,429.167 137.5,429.5C 136.5,429.5 135.5,429.5 134.5,429.5C 136.168,436.837 137.834,444.171 139.5,451.5C 127.092,445.306 115.759,437.639 105.5,428.5C 115.989,428.025 126.656,428.025 137.5,428.5 Z"/></g>
<g><path style="opacity:1" fill="#5995a3" d="M 207.5,428.5 C 206.791,429.404 205.791,429.737 204.5,429.5C 206.904,445.865 210.571,461.865 215.5,477.5C 210.36,477.139 205.36,476.139 200.5,474.5C 195.714,459.697 191.38,444.697 187.5,429.5C 194.148,428.861 200.814,428.527 207.5,428.5 Z"/></g>
<g><path style="opacity:1" fill="#93b9c4" d="M 137.5,429.5 C 145.833,429.5 154.167,429.5 162.5,429.5C 166.167,429.5 169.833,429.5 173.5,429.5C 169.03,430.486 164.363,430.819 159.5,430.5C 161.789,441.95 164.456,453.284 167.5,464.5C 157.651,461.242 148.318,456.908 139.5,451.5C 137.834,444.171 136.168,436.837 134.5,429.5C 135.5,429.5 136.5,429.5 137.5,429.5 Z"/></g>
<g><path style="opacity:1" fill="#75a7b3" d="M 173.5,429.5 C 177.5,429.5 181.5,429.5 185.5,429.5C 186.167,429.5 186.833,429.5 187.5,429.5C 191.38,444.697 195.714,459.697 200.5,474.5C 189.135,472.379 178.135,469.045 167.5,464.5C 164.456,453.284 161.789,441.95 159.5,430.5C 164.363,430.819 169.03,430.486 173.5,429.5 Z"/></g>
<g><path style="opacity:1" fill="#639998" d="M 364.5,428.5 C 366.384,428.712 367.717,429.712 368.5,431.5C 367.023,433.82 365.19,435.153 363,435.5C 362.598,434.128 362.098,432.795 361.5,431.5C 362.868,430.406 364.035,430.74 365,432.5C 365.195,431.181 365.028,429.847 364.5,428.5 Z"/></g>
<g><path style="opacity:1" fill="#518d8e" d="M 357.5,434.5 C 359.322,435.281 359.989,436.448 359.5,438C 356.995,439.753 354.329,441.253 351.5,442.5C 350.692,442.192 350.025,441.692 349.5,441C 350.46,439.581 351.293,438.081 352,436.5C 352.691,438.891 353.691,438.891 355,436.5C 355.333,437.167 355.667,437.833 356,438.5C 356.41,437.099 356.91,435.766 357.5,434.5 Z"/></g>
<g><path style="opacity:1" fill="#64999b" d="M 347.5,440.5 C 348.776,441.386 348.776,442.386 347.5,443.5C 346.604,442.494 345.938,442.494 345.5,443.5C 345.957,444.298 346.624,444.631 347.5,444.5C 346.057,445.703 344.391,446.203 342.5,446C 343.631,443.626 345.298,441.792 347.5,440.5 Z"/></g>
<g><path style="opacity:1" fill="#6599a0" d="M 315.5,457.5 C 314.222,457.218 313.222,456.551 312.5,455.5C 312.5,454.833 312.833,454.5 313.5,454.5C 314.222,454.918 314.722,455.584 315,456.5C 316.487,455.747 316.654,454.914 315.5,454C 316.416,453.626 317.25,453.126 318,452.5C 320.37,455.761 319.536,457.428 315.5,457.5 Z"/></g>
<g><path style="opacity:1" fill="#5d929c" d="M 312.5,455.5 C 312.65,459.161 311.15,460.161 308,458.5C 307.333,461.167 306.667,461.167 306,458.5C 305.333,461.167 304.667,461.167 304,458.5C 303.139,461.845 301.305,462.845 298.5,461.5C 300.665,459.304 303.165,457.304 306,455.5C 306.333,456.167 306.667,456.833 307,457.5C 308.815,456.756 310.648,456.089 312.5,455.5 Z"/></g>
<g><path style="opacity:1" fill="#719ea9" d="M 298.5,461.5 C 296.318,464.043 294.152,464.043 292,461.5C 291.444,463.595 290.944,463.762 290.5,462C 291.34,460.829 292.173,459.662 293,458.5C 293.333,459.833 293.667,461.167 294,462.5C 294.667,459.833 295.333,459.833 296,462.5C 296.299,459.202 297.133,458.868 298.5,461.5 Z"/></g>
</svg>
